HIERARCHY
ROOT joint_Root
{
  OFFSET 0 0 0
  CHANNELS 6 Xposition Yposition Zposition Zrotation Xrotation Yrotation
  JOINT Hips
  {
    OFFSET 0.847027 93.984 -452.225
    CHANNELS 6 Xposition Yposition Zposition Zrotation Xrotation Yrotation
    JOINT Spine
    {
      OFFSET 15.7357 0 0
      CHANNELS 6 Xposition Yposition Zposition Zrotation Xrotation Yrotation
      JOINT Chest
      {
        OFFSET 8.98455 -0.406207 0
        CHANNELS 6 Xposition Yposition Zposition Zrotation Xrotation Yrotation
        JOINT Neck
        {
          OFFSET 16.3773 0 0
          CHANNELS 6 Xposition Yposition Zposition Zrotation Xrotation Yrotation
          JOINT Head
          {
            OFFSET 6.45672 0 0
            CHANNELS 6 Xposition Yposition Zposition Zrotation Xrotation Yrotation
            End Site
            {
              OFFSET 0 0 0
            }
          }
        }
        JOINT Shoulder_L
        {
          OFFSET 12.9942 -0.242716 4.98039
          CHANNELS 6 Xposition Yposition Zposition Zrotation Xrotation Yrotation
          JOINT UpperArm_L
          {
            OFFSET 5.34809 0 0
            CHANNELS 6 Xposition Yposition Zposition Zrotation Xrotation Yrotation
            JOINT LowerArm_L
            {
              OFFSET 24.3286 1.87007e-05 0
              CHANNELS 6 Xposition Yposition Zposition Zrotation Xrotation Yrotation
              JOINT Hand_L
              {
                OFFSET 22.2916 0 0
                CHANNELS 6 Xposition Yposition Zposition Zrotation Xrotation Yrotation
                End Site
                {
                  OFFSET 0 0 0
                }
              }
            }
          }
        }
        JOINT Shoulder_R
        {
          OFFSET 12.9945 -0.242716 -4.98039
          CHANNELS 6 Xposition Yposition Zposition Zrotation Xrotation Yrotation
          JOINT UpperArm_R
          {
            OFFSET -5.34813 0 0
            CHANNELS 6 Xposition Yposition Zposition Zrotation Xrotation Yrotation
            JOINT LowerArm_R
            {
              OFFSET -24.3289 0.000322201 0
              CHANNELS 6 Xposition Yposition Zposition Zrotation Xrotation Yrotation
              JOINT Hand_R
              {
                OFFSET -22.2915 -0.000108084 0
                CHANNELS 6 Xposition Yposition Zposition Zrotation Xrotation Yrotation
                End Site
                {
                  OFFSET 0 0 0
                }
              }
            }
          }
        }
      }
    }
    JOINT UpperLeg_L
    {
      OFFSET -2.19248 -6.46944 0
      CHANNELS 6 Xposition Yposition Zposition Zrotation Xrotation Yrotation
      JOINT LowerLeg_L
      {
        OFFSET 39.0811 0 -1.23785e-05
        CHANNELS 6 Xposition Yposition Zposition Zrotation Xrotation Yrotation
        JOINT Foot_L
        {
          OFFSET 40.9854 0 -1.26872e-05
          CHANNELS 6 Xposition Yposition Zposition Zrotation Xrotation Yrotation
          JOINT Toes_L
          {
            OFFSET 11.7543 0 0
            CHANNELS 6 Xposition Yposition Zposition Zrotation Xrotation Yrotation
            End Site
            {
              OFFSET 0 0 0
            }
          }
        }
      }
    }
    JOINT UpperLeg_R
    {
      OFFSET -2.19251 6.46944 0
      CHANNELS 6 Xposition Yposition Zposition Zrotation Xrotation Yrotation
      JOINT LowerLeg_R
      {
        OFFSET -39.0811 -0.00228153 -0.0401928
        CHANNELS 6 Xposition Yposition Zposition Zrotation Xrotation Yrotation
        JOINT Foot_R
        {
          OFFSET -40.9854 0 0
          CHANNELS 6 Xposition Yposition Zposition Zrotation Xrotation Yrotation
          JOINT Toes_R
          {
            OFFSET -11.7543 0 0
            CHANNELS 6 Xposition Yposition Zposition Zrotation Xrotation Yrotation
            End Site
            {
              OFFSET 0 0 0
            }
          }
        }
      }
    }
  }
}
MOTION
Frames:	8
Frame Time:	0.0333333
0 0 0 0 0 -0 -5.21278 91.5785 -2.75832 90.0658 0.608185 14.4988 15.7357 5.1072e-06 -5.51765e-07 85.4647 79.8587 -82.32 8.98455 -0.406207 -4.3199e-07 12.5042 -1.45882 6.44885 16.3773 -1.3905e-06 -6.99897e-07 6.50212 -3.02089 7.03267 6.45672 -1.25837e-06 -1.02172e-07 -4.50555 -2.17653 12.7957 12.9942 -0.242716 4.98039 -89.1709 -2.7039 -87.9459 5.34809 -7.22636e-06 -6.2814e-07 -37.8044 -55.524 -55.2364 24.3286 1.87007e-05 4.90208e-06 -7.32578 -5.08982 -55.3931 22.2916 -9.88446e-07 4.63217e-06 22.0669 5.52883 -7.74308 12.9945 -0.242716 -4.98039 91.2301 -3.89973 -87.4783 -5.34813 -1.25947e-06 -3.79883e-06 -39.3592 -59.6647 -64.6205 -24.3289 0.000322201 -8.65921e-06 13.9909 7.88439 -61.167 -22.2915 -0.000108084 -4.47941e-06 19.0976 5.20161 2.67876 -2.19248 -6.46944 -1.22534e-07 -169.711 -6.1876 6.28913 39.0811 -6.73843e-06 -1.23785e-05 -0.00134027 0.0275602 23.5704 40.9854 -6.48686e-06 -1.26872e-05 -6.01882 3.97019 -63.2736 11.7543 -2.30145e-07 3.05095e-06 -0.0564103 -0.133552 -17.3356 -2.19251 6.46944 -1.45247e-06 171.148 15.6114 -171.976 -39.0811 -0.00228153 -0.0401928 0.0176576 0.0126219 24.985 -40.9854 7.72618e-06 5.99936e-06 -2.78327 2.86304 -67.0702 -11.7543 -5.6619e-06 -5.58687e-06 0.00338013 -0.00375417 -16.611 
0 0 0 0 0 -0 -5.2191 91.5742 -2.84607 90.0785 0.591867 14.6005 15.7357 5.1072e-06 -5.51765e-07 85.4029 79.7678 -82.2266 8.98455 -0.406207 -4.3199e-07 12.6854 -1.48812 6.51811 16.3773 -1.3905e-06 -6.99897e-07 6.43318 -3.1422 7.03482 6.45672 -1.25837e-06 -1.02172e-07 -4.49301 -2.30754 12.9365 12.9942 -0.242716 4.98039 -89.1344 -2.82583 -87.9604 5.34809 -7.22636e-06 -6.2814e-07 -38.0589 -53.4063 -57.4139 24.3286 1.87007e-05 4.90208e-06 -5.2144 -3.23471 -58.2761 22.2916 -9.88446e-07 4.63217e-06 21.9733 5.53184 -7.87581 12.9945 -0.242716 -4.98039 91.279 -4.09361 -87.6334 -5.34813 -1.25947e-06 -3.79883e-06 -37.0568 -57.6178 -64.7584 -24.3289 0.000322201 -8.65921e-06 15.0683 7.50992 -64.1074 -22.2915 -0.000108084 -4.47941e-06 18.6657 5.20969 2.47485 -2.19248 -6.46944 -1.22534e-07 -169.708 -6.19749 6.25971 39.0811 -6.73843e-06 -1.23785e-05 -0.000920275 0.0265744 23.6995 40.9854 -6.48686e-06 -1.26872e-05 -5.98592 3.9812 -63.2401 11.7543 -2.30145e-07 3.05095e-06 -0.0217006 -0.0944414 -17.3224 -2.19251 6.46944 -1.45247e-06 171.127 15.5923 -171.987 -39.0811 -0.00228153 -0.0401928 0.0184 0.0110651 25.0731 -40.9854 7.72618e-06 5.99936e-06 -2.75575 2.89769 -67.0504 -11.7543 -5.6619e-06 -5.58687e-06 0.003752 -0.00415914 -16.615 
0 0 0 0 0 -0 -5.21192 91.5703 -2.94199 90.1086 0.574256 14.7306 15.7357 5.1072e-06 -5.51765e-07 85.2206 79.6531 -82.0204 8.98455 -0.406207 -4.3199e-07 12.9117 -1.56348 6.5777 16.3773 -1.3905e-06 -6.99897e-07 6.36802 -3.24052 7.04945 6.45672 -1.25837e-06 -1.02172e-07 -4.58184 -2.3609 13.1228 12.9942 -0.242716 4.98039 -89.0987 -2.94147 -87.9551 5.34809 -7.22636e-06 -6.2814e-07 -37.8486 -51.4467 -58.9179 24.3286 1.87007e-05 4.90208e-06 -2.60528 -1.41722 -61.4861 22.2916 -9.88446e-07 4.63217e-06 21.6548 5.5314 -7.85673 12.9945 -0.242716 -4.98039 91.3305 -4.30488 -87.8071 -5.34813 -1.25947e-06 -3.79883e-06 -35.0928 -55.6978 -65.1262 -24.3289 0.000322201 -8.65921e-06 15.9289 6.96664 -66.977 -22.2915 -0.000108084 -4.47941e-06 18.012 5.21919 2.23318 -2.19248 -6.46944 -1.22534e-07 -169.69 -6.33093 6.31364 39.0811 -6.73843e-06 -1.23785e-05 -0.000979233 0.0267823 23.7424 40.9854 -6.48686e-06 -1.26872e-05 -6.00708 4.07 -63.1838 11.7543 -2.30145e-07 3.05095e-06 -0.0165265 -0.0861182 -17.2935 -2.19251 6.46944 -1.45247e-06 171.07 15.5782 -171.963 -39.0811 -0.00228153 -0.0401928 0.0181415 0.0117489 25.1616 -40.9854 7.72618e-06 5.99936e-06 -2.7363 2.92674 -67.033 -11.7543 -5.6619e-06 -5.58687e-06 0.00873161 -0.00972278 -16.6699 
0 0 0 0 0 -0 -5.20588 91.5789 -3.04143 90.1509 0.50518 14.7974 15.7357 5.1072e-06 -5.51765e-07 85.1636 79.5377 -81.9385 8.98455 -0.406207 -4.3199e-07 13.1413 -1.59491 6.63493 16.3773 -1.3905e-06 -6.99897e-07 6.24704 -3.34508 7.05912 6.45672 -1.25837e-06 -1.02172e-07 -4.73173 -2.44212 13.3069 12.9942 -0.242716 4.98039 -89.0835 -3.00998 -88.056 5.34809 -7.22636e-06 -6.2814e-07 -37.4562 -49.8179 -59.9402 24.3286 1.87007e-05 4.90208e-06 0.422417 0.195362 -65.0948 22.2916 -9.88446e-07 4.63217e-06 21.1766 5.52412 -7.53761 12.9945 -0.242716 -4.98039 91.3806 -4.51307 -87.9712 -5.34813 -1.25947e-06 -3.79883e-06 -33.2847 -54.0379 -65.4847 -24.3289 0.000322201 -8.65921e-06 16.7279 6.35226 -69.7912 -22.2915 -0.000108084 -4.47941e-06 17.5426 5.2328 1.88295 -2.19248 -6.46944 -1.22534e-07 -169.691 -6.4821 6.34841 39.0811 -6.73843e-06 -1.23785e-05 -0.000902411 0.0266884 23.7032 40.9854 -6.48686e-06 -1.26872e-05 -5.98049 4.16015 -63.0691 11.7543 -2.30145e-07 3.05095e-06 -0.0155926 -0.0886436 -17.3315 -2.19251 6.46944 -1.45247e-06 171.04 15.5182 -172.011 -39.0811 -0.00228153 -0.0401928 0.0209819 0.00585727 25.199 -40.9854 7.72618e-06 5.99936e-06 -2.71607 2.95554 -66.9672 -11.7543 -5.6619e-06 -5.58687e-06 0.00467567 -0.00519632 -16.6252 
0 0 0 0 0 -0 -5.19785 91.5879 -3.14999 90.1869 0.417729 14.8075 15.7357 5.1072e-06 -5.51765e-07 85.0885 79.4487 -81.8369 8.98455 -0.406207 -4.3199e-07 13.3182 -1.63034 6.69478 16.3773 -1.3905e-06 -6.99897e-07 6.01509 -3.45319 7.07121 6.45672 -1.25837e-06 -1.02172e-07 -4.65456 -2.42917 13.4958 12.9942 -0.242716 4.98039 -89.0536 -3.13039 -88.1684 5.34809 -7.22636e-06 -6.2814e-07 -37.1703 -48.4431 -60.5012 24.3286 1.87007e-05 4.90208e-06 2.89955 1.11471 -68.9817 22.2916 -9.88446e-07 4.63217e-06 20.4259 5.51968 -7.34827 12.9945 -0.242716 -4.98039 91.423 -4.71095 -88.1722 -5.34813 -1.25947e-06 -3.79883e-06 -31.8908 -52.6005 -65.9115 -24.3289 0.000322201 -8.65921e-06 17.7746 5.77188 -72.584 -22.2915 -0.000108084 -4.47941e-06 17.1621 5.24198 1.64381 -2.19248 -6.46944 -1.22534e-07 -169.686 -6.65674 6.36761 39.0811 -6.73843e-06 -1.23785e-05 -0.00100757 0.026948 23.5929 40.9854 -6.48686e-06 -1.26872e-05 -6.0067 4.22902 -62.9668 11.7543 -2.30145e-07 3.05095e-06 -0.0315725 -0.105134 -17.3213 -2.19251 6.46944 -1.45247e-06 171.007 15.5582 -172.115 -39.0811 -0.00228153 -0.0401928 0.0210878 0.00564783 25.2392 -40.9854 7.72618e-06 5.99936e-06 -2.67192 3.04954 -66.8956 -11.7543 -5.6619e-06 -5.58687e-06 0.00436588 -0.00484963 -16.6219 
0 0 0 0 0 -0 -5.19546 91.6125 -3.24991 90.2484 0.303583 14.7563 15.7357 5.1072e-06 -5.51765e-07 85.0376 79.3659 -81.7755 8.98455 -0.406207 -4.3199e-07 13.4827 -1.6574 6.7217 16.3773 -1.3905e-06 -6.99897e-07 5.68053 -3.62622 6.98276 6.45672 -1.25837e-06 -1.02172e-07 -4.59496 -2.46099 13.7952 12.9942 -0.242716 4.98039 -89.0127 -3.28276 -88.251 5.34809 -7.22636e-06 -6.2814e-07 -37.0512 -47.3989 -60.7664 24.3286 1.87007e-05 4.90208e-06 3.62296 1.12675 -72.7459 22.2916 -9.88446e-07 4.63217e-06 19.7485 5.52176 -7.43642 12.9945 -0.242716 -4.98039 91.4573 -4.89072 -88.3853 -5.34813 -1.25947e-06 -3.79883e-06 -31.25 -51.5129 -66.5671 -24.3289 0.000322201 -8.65921e-06 19.2173 5.24318 -75.3106 -22.2915 -0.000108084 -4.47941e-06 16.6484 5.24676 1.51794 -2.19248 -6.46944 -1.22534e-07 -169.736 -6.78543 6.3551 39.0811 -6.73843e-06 -1.23785e-05 -0.00104405 0.0270734 23.438 40.9854 -6.48686e-06 -1.26872e-05 -6.03054 4.21244 -62.829 11.7543 -2.30145e-07 3.05095e-06 0.00193416 -0.066379 -17.2976 -2.19251 6.46944 -1.45247e-06 170.964 15.5837 -172.236 -39.0811 -0.00228153 -0.0401928 0.0217953 0.00386877 25.1925 -40.9854 7.72618e-06 5.99936e-06 -2.62846 3.17496 -66.7847 -11.7543 -5.6619e-06 -5.58687e-06 0.00278938 -0.00310132 -16.6046 
0 0 0 0 0 -0 -5.19065 91.6251 -3.33713 90.2951 0.238154 14.7249 15.7357 5.1072e-06 -5.51765e-07 85.0154 79.2516 -81.74 8.98455 -0.406207 -4.3199e-07 13.7107 -1.6774 6.75457 16.3773 -1.3905e-06 -6.99897e-07 5.27203 -3.79755 6.86822 6.45672 -1.25837e-06 -1.02172e-07 -4.6652 -2.57913 14.0698 12.9942 -0.242716 4.98039 -88.9649 -3.47477 -88.3994 5.34809 -7.22636e-06 -6.2814e-07 -37.5292 -46.8516 -60.9767 24.3286 1.87007e-05 4.90208e-06 3.50302 0.852182 -76.3457 22.2916 -9.88446e-07 4.63217e-06 18.7974 5.5254 -7.59455 12.9945 -0.242716 -4.98039 91.4847 -5.03878 -88.5587 -5.34813 -1.25947e-06 -3.79883e-06 -31.0933 -50.8336 -67.1347 -24.3289 0.000322201 -8.65921e-06 19.9818 4.53737 -77.7267 -22.2915 -0.000108084 -4.47941e-06 16.6409 5.24918 1.45436 -2.19248 -6.46944 -1.22534e-07 -169.782 -6.86195 6.38473 39.0811 -6.73843e-06 -1.23785e-05 -0.00135479 0.0277913 23.23 40.9854 -6.48686e-06 -1.26872e-05 -6.05092 4.16399 -62.7072 11.7543 -2.30145e-07 3.05095e-06 -0.0808762 -0.159667 -17.3278 -2.19251 6.46944 -1.45247e-06 170.946 15.5612 -172.353 -39.0811 -0.00228153 -0.0401928 0.0222311 0.00318996 25.1998 -40.9854 7.72618e-06 5.99936e-06 -2.59763 3.24746 -66.7184 -11.7543 -5.6619e-06 -5.58687e-06 0.0045081 -0.00500528 -16.6234 
0 0 0 0 0 -0 -5.20414 91.6462 -3.41323 90.3268 0.13432 14.7231 15.7357 5.1072e-06 -5.51765e-07 85.0444 79.1119 -81.7731 8.98455 -0.406207 -4.3199e-07 13.9903 -1.68199 6.75177 16.3773 -1.3905e-06 -6.99897e-07 4.96664 -3.95783 6.75164 6.45672 -1.25837e-06 -1.02172e-07 -5.03091 -2.67321 14.3273 12.9942 -0.242716 4.98039 -88.9379 -3.57221 -88.4284 5.34809 -7.22636e-06 -6.2814e-07 -38.1067 -46.7123 -61.1083 24.3286 1.87007e-05 4.90208e-06 3.05168 0.578496 -79.2773 22.2916 -9.88446e-07 4.63217e-06 18.556 5.5245 -7.55554 12.9945 -0.242716 -4.98039 91.4907 -5.09806 -88.6765 -5.34813 -1.25947e-06 -3.79883e-06 -31.6759 -50.533 -67.8238 -24.3289 0.000322201 -8.65921e-06 20.1337 3.81531 -79.714 -22.2915 -0.000108084 -4.47941e-06 16.406 5.25595 1.27449 -2.19248 -6.46944 -1.22534e-07 -169.799 -6.90292 6.48925 39.0811 -6.73843e-06 -1.23785e-05 -0.00201338 0.0295668 22.977 40.9854 -6.48686e-06 -1.26872e-05 -6.1367 4.11084 -62.59 11.7543 -2.30145e-07 3.05095e-06 -0.0755625 -0.152822 -17.3165 -2.19251 6.46944 -1.45247e-06 170.964 15.5079 -172.41 -39.0811 -0.00228153 -0.0401928 0.02284 0.00140197 25.1442 -40.9854 7.72618e-06 5.99936e-06 -2.57344 3.23443 -66.6271 -11.7543 -5.6619e-06 -5.58687e-06 0.00270857 -0.00300342 -16.6037 
